<?xml version="1.0" encoding="utf-8" standalone="no"?>
<!DOCTYPE svg PUBLIC "-//W3C//DTD SVG 1.1//EN"
  "http://www.w3.org/Graphics/SVG/1.1/DTD/svg11.dtd">
<svg xmlns:xlink="http://www.w3.org/1999/xlink" width="604.8pt" height="544.32pt" viewBox="0 0 604.8 544.32" xmlns="http://www.w3.org/2000/svg" version="1.1">
 <metadata>
  <rdf:RDF xmlns:dc="http://purl.org/dc/elements/1.1/" xmlns:cc="http://creativecommons.org/ns#" xmlns:rdf="http://www.w3.org/1999/02/22-rdf-syntax-ns#">
   <cc:Work>
    <dc:type rdf:resource="http://purl.org/dc/dcmitype/StillImage"/>
    <dc:format>image/svg+xml</dc:format>
    <dc:creator>
     <cc:Agent>
      <dc:title>Matplotlib v3.11.0, https://matplotlib.org/</dc:title>
     </cc:Agent>
    </dc:creator>
   </cc:Work>
  </rdf:RDF>
 </metadata>
 <defs>
  <style type="text/css">*{stroke-linejoin: round; stroke-linecap: butt}</style>
 </defs>
 <g id="figure_1">
  <g id="patch_1">
   <path d="M 0 544.32
L 604.8 544.32
L 604.8 0
L 0 0
z
" style="fill: #ffffff"/>
  </g>
  <g id="axes_1">
   <g id="patch_2">
    <path d="M 131.058053 510.318979
L 601.79976 510.318979
L 601.79976 37.662603
L 131.058053 37.662603
z
" style="fill: #ffffff"/>
   </g>
   <g id="matplotlib.axis_1">
    <g id="xtick_1">
     <g id="line2d_1">
      <path d="M 180.805205 510.318979
L 180.805205 37.662603
" clip-path="url(#p517741fdea)" style="fill: none; stroke: #e5e7eb; stroke-width: 0.8; stroke-linecap: square"/>
     </g>
     <g id="line2d_2">
      <defs>
       <path id="mbae919d79e" d="M 0 0
L 0 3.5
" style="stroke: #000000; stroke-width: 0.8"/>
      </defs>
      <g>
       <use xlink:href="#mbae919d79e" x="180.805205" y="510.318979" style="stroke: #000000; stroke-width: 0.8"/>
      </g>
     </g>
     <g id="text_1">
      <text style="font-size: 10px; font-family: 'DejaVu Sans'; text-anchor: middle" x="180.805205" y="524.916635" transform="rotate(-0 180.805205 524.916635)">−40</text>
     </g>
    </g>
    <g id="xtick_2">
     <g id="line2d_3">
      <path d="M 251.342211 510.318979
L 251.342211 37.662603
" clip-path="url(#p517741fdea)" style="fill: none; stroke: #e5e7eb; stroke-width: 0.8; stroke-linecap: square"/>
     </g>
     <g id="line2d_4">
      <g>
       <use xlink:href="#mbae919d79e" x="251.342211" y="510.318979" style="stroke: #000000; stroke-width: 0.8"/>
      </g>
     </g>
     <g id="text_2">
      <text style="font-size: 10px; font-family: 'DejaVu Sans'; text-anchor: middle" x="251.342211" y="524.916635" transform="rotate(-0 251.342211 524.916635)">−30</text>
     </g>
    </g>
    <g id="xtick_3">
     <g id="line2d_5">
      <path d="M 321.879218 510.318979
L 321.879218 37.662603
" clip-path="url(#p517741fdea)" style="fill: none; stroke: #e5e7eb; stroke-width: 0.8; stroke-linecap: square"/>
     </g>
     <g id="line2d_6">
      <g>
       <use xlink:href="#mbae919d79e" x="321.879218" y="510.318979" style="stroke: #000000; stroke-width: 0.8"/>
      </g>
     </g>
     <g id="text_3">
      <text style="font-size: 10px; font-family: 'DejaVu Sans'; text-anchor: middle" x="321.879218" y="524.916635" transform="rotate(-0 321.879218 524.916635)">−20</text>
     </g>
    </g>
    <g id="xtick_4">
     <g id="line2d_7">
      <path d="M 392.416224 510.318979
L 392.416224 37.662603
" clip-path="url(#p517741fdea)" style="fill: none; stroke: #e5e7eb; stroke-width: 0.8; stroke-linecap: square"/>
     </g>
     <g id="line2d_8">
      <g>
       <use xlink:href="#mbae919d79e" x="392.416224" y="510.318979" style="stroke: #000000; stroke-width: 0.8"/>
      </g>
     </g>
     <g id="text_4">
      <text style="font-size: 10px; font-family: 'DejaVu Sans'; text-anchor: middle" x="392.416224" y="524.916635" transform="rotate(-0 392.416224 524.916635)">−10</text>
     </g>
    </g>
    <g id="xtick_5">
     <g id="line2d_9">
      <path d="M 462.953231 510.318979
L 462.953231 37.662603
" clip-path="url(#p517741fdea)" style="fill: none; stroke: #e5e7eb; stroke-width: 0.8; stroke-linecap: square"/>
     </g>
     <g id="line2d_10">
      <g>
       <use xlink:href="#mbae919d79e" x="462.953231" y="510.318979" style="stroke: #000000; stroke-width: 0.8"/>
      </g>
     </g>
     <g id="text_5">
      <text style="font-size: 10px; font-family: 'DejaVu Sans'; text-anchor: middle" x="462.953231" y="524.916635" transform="rotate(-0 462.953231 524.916635)">0</text>
     </g>
    </g>
    <g id="xtick_6">
     <g id="line2d_11">
      <path d="M 533.490238 510.318979
L 533.490238 37.662603
" clip-path="url(#p517741fdea)" style="fill: none; stroke: #e5e7eb; stroke-width: 0.8; stroke-linecap: square"/>
     </g>
     <g id="line2d_12">
      <g>
       <use xlink:href="#mbae919d79e" x="533.490238" y="510.318979" style="stroke: #000000; stroke-width: 0.8"/>
      </g>
     </g>
     <g id="text_6">
      <text style="font-size: 10px; font-family: 'DejaVu Sans'; text-anchor: middle" x="533.490238" y="524.916635" transform="rotate(-0 533.490238 524.916635)">10</text>
     </g>
    </g>
    <g id="text_7">
     <text style="font-size: 10px; font-family: 'DejaVu Sans'; text-anchor: middle" x="366.428906" y="538.917416" transform="rotate(-0 366.428906 538.917416)">Change in stable outcomes vs baseline (percentage points)</text>
    </g>
   </g>
   <g id="matplotlib.axis_2">
    <g id="ytick_1">
     <g id="line2d_13">
      <defs>
       <path id="m5c6ceaf6e1" d="M 0 0
L -3.5 0
" style="stroke: #000000; stroke-width: 0.8"/>
      </defs>
      <g>
       <use xlink:href="#m5c6ceaf6e1" x="131.058053" y="61.414465" style="stroke: #000000; stroke-width: 0.8"/>
      </g>
     </g>
     <g id="text_8">
      <text style="font-size: 10px; font-family: 'DejaVu Sans'; text-anchor: end" x="124.058053" y="65.213684" transform="rotate(-0 124.058053 65.213684)">site count = 5</text>
     </g>
    </g>
    <g id="ytick_2">
     <g id="line2d_14">
      <g>
       <use xlink:href="#m5c6ceaf6e1" x="131.058053" y="89.757975" style="stroke: #000000; stroke-width: 0.8"/>
      </g>
     </g>
     <g id="text_9">
      <text style="font-size: 10px; font-family: 'DejaVu Sans'; text-anchor: end" x="124.058053" y="93.557194" transform="rotate(-0 124.058053 93.557194)">mutation sd = 0.06</text>
     </g>
    </g>
    <g id="ytick_3">
     <g id="line2d_15">
      <g>
       <use xlink:href="#m5c6ceaf6e1" x="131.058053" y="118.101485" style="stroke: #000000; stroke-width: 0.8"/>
      </g>
     </g>
     <g id="text_10">
      <text style="font-size: 10px; font-family: 'DejaVu Sans'; text-anchor: end" x="124.058053" y="121.900704" transform="rotate(-0 124.058053 121.900704)">vertical benefit = 0.34</text>
     </g>
    </g>
    <g id="ytick_4">
     <g id="line2d_16">
      <g>
       <use xlink:href="#m5c6ceaf6e1" x="131.058053" y="146.444995" style="stroke: #000000; stroke-width: 0.8"/>
      </g>
     </g>
     <g id="text_11">
      <text style="font-size: 10px; font-family: 'DejaVu Sans'; text-anchor: end" x="124.058053" y="150.244214" transform="rotate(-0 124.058053 150.244214)">transposition corr. = 0.5</text>
     </g>
    </g>
    <g id="ytick_5">
     <g id="line2d_17">
      <g>
       <use xlink:href="#m5c6ceaf6e1" x="131.058053" y="174.788505" style="stroke: #000000; stroke-width: 0.8"/>
      </g>
     </g>
     <g id="text_12">
      <text style="font-size: 10px; font-family: 'DejaVu Sans'; text-anchor: end" x="124.058053" y="178.587724" transform="rotate(-0 124.058053 178.587724)">mutation sd = 0.12</text>
     </g>
    </g>
    <g id="ytick_6">
     <g id="line2d_18">
      <g>
       <use xlink:href="#m5c6ceaf6e1" x="131.058053" y="203.132016" style="stroke: #000000; stroke-width: 0.8"/>
      </g>
     </g>
     <g id="text_13">
      <text style="font-size: 10px; font-family: 'DejaVu Sans'; text-anchor: end" x="124.058053" y="206.931234" transform="rotate(-0 124.058053 206.931234)">vertical benefit = 0.4</text>
     </g>
    </g>
    <g id="ytick_7">
     <g id="line2d_19">
      <g>
       <use xlink:href="#m5c6ceaf6e1" x="131.058053" y="231.475526" style="stroke: #000000; stroke-width: 0.8"/>
      </g>
     </g>
     <g id="text_14">
      <text style="font-size: 10px; font-family: 'DejaVu Sans'; text-anchor: end" x="124.058053" y="235.274745" transform="rotate(-0 124.058053 235.274745)">max distance = 7</text>
     </g>
    </g>
    <g id="ytick_8">
     <g id="line2d_20">
      <g>
       <use xlink:href="#m5c6ceaf6e1" x="131.058053" y="259.819036" style="stroke: #000000; stroke-width: 0.8"/>
      </g>
     </g>
     <g id="text_15">
      <text style="font-size: 10px; font-family: 'DejaVu Sans'; text-anchor: end" x="124.058053" y="263.618255" transform="rotate(-0 124.058053 263.618255)">travel cost = 0.05</text>
     </g>
    </g>
    <g id="ytick_9">
     <g id="line2d_21">
      <g>
       <use xlink:href="#m5c6ceaf6e1" x="131.058053" y="288.162546" style="stroke: #000000; stroke-width: 0.8"/>
      </g>
     </g>
     <g id="text_16">
      <text style="font-size: 10px; font-family: 'DejaVu Sans'; text-anchor: end" x="124.058053" y="291.961765" transform="rotate(-0 124.058053 291.961765)">max distance = 6</text>
     </g>
    </g>
    <g id="ytick_10">
     <g id="line2d_22">
      <g>
       <use xlink:href="#m5c6ceaf6e1" x="131.058053" y="316.506056" style="stroke: #000000; stroke-width: 0.8"/>
      </g>
     </g>
     <g id="text_17">
      <text style="font-size: 10px; font-family: 'DejaVu Sans'; text-anchor: end" x="124.058053" y="320.305275" transform="rotate(-0 124.058053 320.305275)">travel cost = 0.02</text>
     </g>
    </g>
    <g id="ytick_11">
     <g id="line2d_23">
      <g>
       <use xlink:href="#m5c6ceaf6e1" x="131.058053" y="344.849566" style="stroke: #000000; stroke-width: 0.8"/>
      </g>
     </g>
     <g id="text_18">
      <text style="font-size: 10px; font-family: 'DejaVu Sans'; text-anchor: end" x="124.058053" y="348.648785" transform="rotate(-0 124.058053 348.648785)">site width = 0.4</text>
     </g>
    </g>
    <g id="ytick_12">
     <g id="line2d_24">
      <g>
       <use xlink:href="#m5c6ceaf6e1" x="131.058053" y="373.193077" style="stroke: #000000; stroke-width: 0.8"/>
      </g>
     </g>
     <g id="text_19">
      <text style="font-size: 10px; font-family: 'DejaVu Sans'; text-anchor: end" x="124.058053" y="376.992295" transform="rotate(-0 124.058053 376.992295)">baseline</text>
     </g>
    </g>
    <g id="ytick_13">
     <g id="line2d_25">
      <g>
       <use xlink:href="#m5c6ceaf6e1" x="131.058053" y="401.536587" style="stroke: #000000; stroke-width: 0.8"/>
      </g>
     </g>
     <g id="text_20">
      <text style="font-size: 10px; font-family: 'DejaVu Sans'; text-anchor: end" x="124.058053" y="405.335805" transform="rotate(-0 124.058053 405.335805)">site width = 0.3</text>
     </g>
    </g>
    <g id="ytick_14">
     <g id="line2d_26">
      <g>
       <use xlink:href="#m5c6ceaf6e1" x="131.058053" y="429.880097" style="stroke: #000000; stroke-width: 0.8"/>
      </g>
     </g>
     <g id="text_21">
      <text style="font-size: 10px; font-family: 'DejaVu Sans'; text-anchor: end" x="124.058053" y="433.679316" transform="rotate(-0 124.058053 433.679316)">transposition corr. = 0.7</text>
     </g>
    </g>
    <g id="ytick_15">
     <g id="line2d_27">
      <g>
       <use xlink:href="#m5c6ceaf6e1" x="131.058053" y="458.223607" style="stroke: #000000; stroke-width: 0.8"/>
      </g>
     </g>
     <g id="text_22">
      <text style="font-size: 10px; font-family: 'DejaVu Sans'; text-anchor: end" x="124.058053" y="462.022826" transform="rotate(-0 124.058053 462.022826)">vertical benefit = 0.48</text>
     </g>
    </g>
    <g id="ytick_16">
     <g id="line2d_28">
      <g>
       <use xlink:href="#m5c6ceaf6e1" x="131.058053" y="486.567117" style="stroke: #000000; stroke-width: 0.8"/>
      </g>
     </g>
     <g id="text_23">
      <text style="font-size: 10px; font-family: 'DejaVu Sans'; text-anchor: end" x="124.058053" y="490.366336" transform="rotate(-0 124.058053 490.366336)">site count = 8</text>
     </g>
    </g>
   </g>
   <g id="LineCollection_1">
    <path d="M 173.380256 61.414465
L 359.003958 61.414465
" clip-path="url(#p517741fdea)" style="fill: none; stroke: #c2410c; stroke-opacity: 0.95; stroke-width: 1.8"/>
   </g>
   <g id="LineCollection_2">
    <path d="M 173.380256 59.146984
L 173.380256 63.681946
" clip-path="url(#p517741fdea)" style="fill: none; stroke: #c2410c; stroke-opacity: 0.95; stroke-width: 1.8"/>
    <path d="M 359.003958 59.146984
L 359.003958 63.681946
" clip-path="url(#p517741fdea)" style="fill: none; stroke: #c2410c; stroke-opacity: 0.95; stroke-width: 1.8"/>
   </g>
   <g id="LineCollection_3">
    <path d="M 284.754478 89.757975
L 433.439063 89.757975
" clip-path="url(#p517741fdea)" style="fill: none; stroke: #c2410c; stroke-opacity: 0.95; stroke-width: 1.8"/>
   </g>
   <g id="LineCollection_4">
    <path d="M 284.754478 87.490494
L 284.754478 92.025456
" clip-path="url(#p517741fdea)" style="fill: none; stroke: #c2410c; stroke-opacity: 0.95; stroke-width: 1.8"/>
    <path d="M 433.439063 87.490494
L 433.439063 92.025456
" clip-path="url(#p517741fdea)" style="fill: none; stroke: #c2410c; stroke-opacity: 0.95; stroke-width: 1.8"/>
   </g>
   <g id="LineCollection_5">
    <path d="M 314.45427 118.101485
L 462.953231 118.101485
" clip-path="url(#p517741fdea)" style="fill: none; stroke: #c2410c; stroke-opacity: 0.95; stroke-width: 1.8"/>
   </g>
   <g id="LineCollection_6">
    <path d="M 314.45427 115.834004
L 314.45427 120.368966
" clip-path="url(#p517741fdea)" style="fill: none; stroke: #c2410c; stroke-opacity: 0.95; stroke-width: 1.8"/>
    <path d="M 462.953231 115.834004
L 462.953231 120.368966
" clip-path="url(#p517741fdea)" style="fill: none; stroke: #c2410c; stroke-opacity: 0.95; stroke-width: 1.8"/>
   </g>
   <g id="LineCollection_7">
    <path d="M 329.304166 146.444995
L 470.378179 146.444995
" clip-path="url(#p517741fdea)" style="fill: none; stroke: #c2410c; stroke-opacity: 0.95; stroke-width: 1.8"/>
   </g>
   <g id="LineCollection_8">
    <path d="M 329.304166 144.177514
L 329.304166 148.712476
" clip-path="url(#p517741fdea)" style="fill: none; stroke: #c2410c; stroke-opacity: 0.95; stroke-width: 1.8"/>
    <path d="M 470.378179 144.177514
L 470.378179 148.712476
" clip-path="url(#p517741fdea)" style="fill: none; stroke: #c2410c; stroke-opacity: 0.95; stroke-width: 1.8"/>
   </g>
   <g id="LineCollection_9">
    <path d="M 351.57901 174.788505
L 485.228075 174.788505
" clip-path="url(#p517741fdea)" style="fill: none; stroke: #c2410c; stroke-opacity: 0.95; stroke-width: 1.8"/>
   </g>
   <g id="LineCollection_10">
    <path d="M 351.57901 172.521025
L 351.57901 177.055986
" clip-path="url(#p517741fdea)" style="fill: none; stroke: #c2410c; stroke-opacity: 0.95; stroke-width: 1.8"/>
    <path d="M 485.228075 172.521025
L 485.228075 177.055986
" clip-path="url(#p517741fdea)" style="fill: none; stroke: #c2410c; stroke-opacity: 0.95; stroke-width: 1.8"/>
   </g>
   <g id="LineCollection_11">
    <path d="M 359.003958 203.132016
L 485.228075 203.132016
" clip-path="url(#p517741fdea)" style="fill: none; stroke: #c2410c; stroke-opacity: 0.95; stroke-width: 1.8"/>
   </g>
   <g id="LineCollection_12">
    <path d="M 359.003958 200.864535
L 359.003958 205.399496
" clip-path="url(#p517741fdea)" style="fill: none; stroke: #c2410c; stroke-opacity: 0.95; stroke-width: 1.8"/>
    <path d="M 485.228075 200.864535
L 485.228075 205.399496
" clip-path="url(#p517741fdea)" style="fill: none; stroke: #c2410c; stroke-opacity: 0.95; stroke-width: 1.8"/>
   </g>
   <g id="LineCollection_13">
    <path d="M 351.57901 231.475526
L 507.688543 231.475526
" clip-path="url(#p517741fdea)" style="fill: none; stroke: #c2410c; stroke-opacity: 0.95; stroke-width: 1.8"/>
   </g>
   <g id="LineCollection_14">
    <path d="M 351.57901 229.208045
L 351.57901 233.743007
" clip-path="url(#p517741fdea)" style="fill: none; stroke: #c2410c; stroke-opacity: 0.95; stroke-width: 1.8"/>
    <path d="M 507.688543 229.208045
L 507.688543 233.743007
" clip-path="url(#p517741fdea)" style="fill: none; stroke: #c2410c; stroke-opacity: 0.95; stroke-width: 1.8"/>
   </g>
   <g id="LineCollection_15">
    <path d="M 373.853854 259.819036
L 507.50292 259.819036
" clip-path="url(#p517741fdea)" style="fill: none; stroke: #c2410c; stroke-opacity: 0.95; stroke-width: 1.8"/>
   </g>
   <g id="LineCollection_16">
    <path d="M 373.853854 257.551555
L 373.853854 262.086517
" clip-path="url(#p517741fdea)" style="fill: none; stroke: #c2410c; stroke-opacity: 0.95; stroke-width: 1.8"/>
    <path d="M 507.50292 257.551555
L 507.50292 262.086517
" clip-path="url(#p517741fdea)" style="fill: none; stroke: #c2410c; stroke-opacity: 0.95; stroke-width: 1.8"/>
   </g>
   <g id="LineCollection_17">
    <path d="M 373.853854 288.162546
L 514.927868 288.162546
" clip-path="url(#p517741fdea)" style="fill: none; stroke: #c2410c; stroke-opacity: 0.95; stroke-width: 1.8"/>
   </g>
   <g id="LineCollection_18">
    <path d="M 373.853854 285.895065
L 373.853854 290.430027
" clip-path="url(#p517741fdea)" style="fill: none; stroke: #c2410c; stroke-opacity: 0.95; stroke-width: 1.8"/>
    <path d="M 514.927868 285.895065
L 514.927868 290.430027
" clip-path="url(#p517741fdea)" style="fill: none; stroke: #c2410c; stroke-opacity: 0.95; stroke-width: 1.8"/>
   </g>
   <g id="LineCollection_19">
    <path d="M 381.278802 316.506056
L 514.927868 316.506056
" clip-path="url(#p517741fdea)" style="fill: none; stroke: #c2410c; stroke-opacity: 0.95; stroke-width: 1.8"/>
   </g>
   <g id="LineCollection_20">
    <path d="M 381.278802 314.238575
L 381.278802 318.773537
" clip-path="url(#p517741fdea)" style="fill: none; stroke: #c2410c; stroke-opacity: 0.95; stroke-width: 1.8"/>
    <path d="M 514.927868 314.238575
L 514.927868 318.773537
" clip-path="url(#p517741fdea)" style="fill: none; stroke: #c2410c; stroke-opacity: 0.95; stroke-width: 1.8"/>
   </g>
   <g id="LineCollection_21">
    <path d="M 388.70375 344.849566
L 522.352816 344.849566
" clip-path="url(#p517741fdea)" style="fill: none; stroke: #c2410c; stroke-opacity: 0.95; stroke-width: 1.8"/>
   </g>
   <g id="LineCollection_22">
    <path d="M 388.70375 342.582086
L 388.70375 347.117047
" clip-path="url(#p517741fdea)" style="fill: none; stroke: #c2410c; stroke-opacity: 0.95; stroke-width: 1.8"/>
    <path d="M 522.352816 342.582086
L 522.352816 347.117047
" clip-path="url(#p517741fdea)" style="fill: none; stroke: #c2410c; stroke-opacity: 0.95; stroke-width: 1.8"/>
   </g>
   <g id="LineCollection_23">
    <path d="M 403.553647 401.536587
L 529.777764 401.536587
" clip-path="url(#p517741fdea)" style="fill: none; stroke: #047857; stroke-opacity: 0.95; stroke-width: 1.8"/>
   </g>
   <g id="LineCollection_24">
    <path d="M 403.553647 399.269106
L 403.553647 403.804068
" clip-path="url(#p517741fdea)" style="fill: none; stroke: #047857; stroke-opacity: 0.95; stroke-width: 1.8"/>
    <path d="M 529.777764 399.269106
L 529.777764 403.804068
" clip-path="url(#p517741fdea)" style="fill: none; stroke: #047857; stroke-opacity: 0.95; stroke-width: 1.8"/>
   </g>
   <g id="LineCollection_25">
    <path d="M 425.828491 429.880097
L 552.052608 429.880097
" clip-path="url(#p517741fdea)" style="fill: none; stroke: #047857; stroke-opacity: 0.95; stroke-width: 1.8"/>
   </g>
   <g id="LineCollection_26">
    <path d="M 425.828491 427.612616
L 425.828491 432.147578
" clip-path="url(#p517741fdea)" style="fill: none; stroke: #047857; stroke-opacity: 0.95; stroke-width: 1.8"/>
    <path d="M 552.052608 427.612616
L 552.052608 432.147578
" clip-path="url(#p517741fdea)" style="fill: none; stroke: #047857; stroke-opacity: 0.95; stroke-width: 1.8"/>
   </g>
   <g id="LineCollection_27">
    <path d="M 425.828491 458.223607
L 559.477556 458.223607
" clip-path="url(#p517741fdea)" style="fill: none; stroke: #047857; stroke-opacity: 0.95; stroke-width: 1.8"/>
   </g>
   <g id="LineCollection_28">
    <path d="M 425.828491 455.956126
L 425.828491 460.491088
" clip-path="url(#p517741fdea)" style="fill: none; stroke: #047857; stroke-opacity: 0.95; stroke-width: 1.8"/>
    <path d="M 559.477556 455.956126
L 559.477556 460.491088
" clip-path="url(#p517741fdea)" style="fill: none; stroke: #047857; stroke-opacity: 0.95; stroke-width: 1.8"/>
   </g>
   <g id="LineCollection_29">
    <path d="M 433.253439 486.567117
L 552.052608 486.567117
" clip-path="url(#p517741fdea)" style="fill: none; stroke: #047857; stroke-opacity: 0.95; stroke-width: 1.8"/>
   </g>
   <g id="LineCollection_30">
    <path d="M 433.253439 484.299636
L 433.253439 488.834598
" clip-path="url(#p517741fdea)" style="fill: none; stroke: #047857; stroke-opacity: 0.95; stroke-width: 1.8"/>
    <path d="M 552.052608 484.299636
L 552.052608 488.834598
" clip-path="url(#p517741fdea)" style="fill: none; stroke: #047857; stroke-opacity: 0.95; stroke-width: 1.8"/>
   </g>
   <g id="line2d_29">
    <path d="M 462.953231 510.318979
L 462.953231 37.662603
" clip-path="url(#p517741fdea)" style="fill: none; stroke: #111827; stroke-linecap: square"/>
   </g>
   <g id="patch_3">
    <path d="M 131.058053 510.318979
L 131.058053 37.662603
" style="fill: none; stroke: #000000; stroke-width: 0.8; stroke-linejoin: miter; stroke-linecap: square"/>
   </g>
   <g id="patch_4">
    <path d="M 131.058053 510.318979
L 601.79976 510.318979
" style="fill: none; stroke: #000000; stroke-width: 0.8; stroke-linejoin: miter; stroke-linecap: square"/>
   </g>
   <g id="PathCollection_1">
    <defs>
     <path id="C0_0_f8b534f2b0" d="M 0 3.674235
C 0.974418 3.674235 1.909058 3.287094 2.598076 2.598076
C 3.287094 1.909058 3.674235 0.974418 3.674235 -0
C 3.674235 -0.974418 3.287094 -1.909058 2.598076 -2.598076
C 1.909058 -3.287094 0.974418 -3.674235 0 -3.674235
C -0.974418 -3.674235 -1.909058 -3.287094 -2.598076 -2.598076
C -3.287094 -1.909058 -3.674235 -0.974418 -3.674235 0
C -3.674235 0.974418 -3.287094 1.909058 -2.598076 2.598076
C -1.909058 3.287094 -0.974418 3.674235 0 3.674235
z
"/>
    </defs>
    <g clip-path="url(#p517741fdea)">
     <use xlink:href="#C0_0_f8b534f2b0" x="262.479633" y="61.414465" style="fill: #c2410c; stroke: #ffffff; stroke-width: 0.8"/>
    </g>
    <g clip-path="url(#p517741fdea)">
     <use xlink:href="#C0_0_f8b534f2b0" x="359.003958" y="89.757975" style="fill: #c2410c; stroke: #ffffff; stroke-width: 0.8"/>
    </g>
    <g clip-path="url(#p517741fdea)">
     <use xlink:href="#C0_0_f8b534f2b0" x="388.70375" y="118.101485" style="fill: #c2410c; stroke: #ffffff; stroke-width: 0.8"/>
    </g>
    <g clip-path="url(#p517741fdea)">
     <use xlink:href="#C0_0_f8b534f2b0" x="403.553647" y="146.444995" style="fill: #c2410c; stroke: #ffffff; stroke-width: 0.8"/>
    </g>
    <g clip-path="url(#p517741fdea)">
     <use xlink:href="#C0_0_f8b534f2b0" x="418.403543" y="174.788505" style="fill: #c2410c; stroke: #ffffff; stroke-width: 0.8"/>
    </g>
    <g clip-path="url(#p517741fdea)">
     <use xlink:href="#C0_0_f8b534f2b0" x="425.828491" y="203.132016" style="fill: #c2410c; stroke: #ffffff; stroke-width: 0.8"/>
    </g>
    <g clip-path="url(#p517741fdea)">
     <use xlink:href="#C0_0_f8b534f2b0" x="433.253439" y="231.475526" style="fill: #c2410c; stroke: #ffffff; stroke-width: 0.8"/>
    </g>
    <g clip-path="url(#p517741fdea)">
     <use xlink:href="#C0_0_f8b534f2b0" x="440.678387" y="259.819036" style="fill: #c2410c; stroke: #ffffff; stroke-width: 0.8"/>
    </g>
    <g clip-path="url(#p517741fdea)">
     <use xlink:href="#C0_0_f8b534f2b0" x="448.103335" y="288.162546" style="fill: #c2410c; stroke: #ffffff; stroke-width: 0.8"/>
    </g>
    <g clip-path="url(#p517741fdea)">
     <use xlink:href="#C0_0_f8b534f2b0" x="448.103335" y="316.506056" style="fill: #c2410c; stroke: #ffffff; stroke-width: 0.8"/>
    </g>
    <g clip-path="url(#p517741fdea)">
     <use xlink:href="#C0_0_f8b534f2b0" x="455.528283" y="344.849566" style="fill: #c2410c; stroke: #ffffff; stroke-width: 0.8"/>
    </g>
    <g clip-path="url(#p517741fdea)">
     <use xlink:href="#C0_0_f8b534f2b0" x="462.953231" y="373.193077" style="fill: #4b5563; stroke: #ffffff; stroke-width: 0.8"/>
    </g>
    <g clip-path="url(#p517741fdea)">
     <use xlink:href="#C0_0_f8b534f2b0" x="470.378179" y="401.536587" style="fill: #047857; stroke: #ffffff; stroke-width: 0.8"/>
    </g>
    <g clip-path="url(#p517741fdea)">
     <use xlink:href="#C0_0_f8b534f2b0" x="485.228075" y="429.880097" style="fill: #047857; stroke: #ffffff; stroke-width: 0.8"/>
    </g>
    <g clip-path="url(#p517741fdea)">
     <use xlink:href="#C0_0_f8b534f2b0" x="492.653023" y="458.223607" style="fill: #047857; stroke: #ffffff; stroke-width: 0.8"/>
    </g>
    <g clip-path="url(#p517741fdea)">
     <use xlink:href="#C0_0_f8b534f2b0" x="492.653023" y="486.567117" style="fill: #047857; stroke: #ffffff; stroke-width: 0.8"/>
    </g>
   </g>
   <g id="text_24">
    <g id="patch_5">
     <path d="M 225.424724 67.264465
L 254.015193 67.264465
Q 255.365193 67.264465 255.365193 65.914465
L 255.365193 56.914465
Q 255.365193 55.564465 254.015193 55.564465
L 225.424724 55.564465
Q 224.074724 55.564465 224.074724 56.914465
L 224.074724 65.914465
Q 224.074724 67.264465 225.424724 67.264465
z
" style="fill: #ffffff; opacity: 0.85"/>
    </g>
    <text style="font-size: 9px; font-family: 'DejaVu Sans'; text-anchor: end; fill: #111827" x="254.015193" y="63.752355" transform="rotate(-0 254.015193 63.752355)">58.9%</text>
   </g>
   <g id="text_25">
    <g id="patch_6">
     <path d="M 321.949049 95.607975
L 350.539517 95.607975
Q 351.889517 95.607975 351.889517 94.257975
L 351.889517 85.257975
Q 351.889517 83.907975 350.539517 83.907975
L 321.949049 83.907975
Q 320.599049 83.907975 320.599049 85.257975
L 320.599049 94.257975
Q 320.599049 95.607975 321.949049 95.607975
z
" style="fill: #ffffff; opacity: 0.85"/>
    </g>
    <text style="font-size: 9px; font-family: 'DejaVu Sans'; text-anchor: end; fill: #111827" x="350.539517" y="92.095866" transform="rotate(-0 350.539517 92.095866)">72.6%</text>
   </g>
   <g id="text_26">
    <g id="patch_7">
     <path d="M 351.648841 123.951485
L 380.23931 123.951485
Q 381.58931 123.951485 381.58931 122.601485
L 381.58931 113.601485
Q 381.58931 112.251485 380.23931 112.251485
L 351.648841 112.251485
Q 350.298841 112.251485 350.298841 113.601485
L 350.298841 122.601485
Q 350.298841 123.951485 351.648841 123.951485
z
" style="fill: #ffffff; opacity: 0.85"/>
    </g>
    <text style="font-size: 9px; font-family: 'DejaVu Sans'; text-anchor: end; fill: #111827" x="380.23931" y="120.439376" transform="rotate(-0 380.23931 120.439376)">76.8%</text>
   </g>
   <g id="text_27">
    <g id="patch_8">
     <path d="M 366.498737 152.294995
L 395.089206 152.294995
Q 396.439206 152.294995 396.439206 150.944995
L 396.439206 141.944995
Q 396.439206 140.594995 395.089206 140.594995
L 366.498737 140.594995
Q 365.148737 140.594995 365.148737 141.944995
L 365.148737 150.944995
Q 365.148737 152.294995 366.498737 152.294995
z
" style="fill: #ffffff; opacity: 0.85"/>
    </g>
    <text style="font-size: 9px; font-family: 'DejaVu Sans'; text-anchor: end; fill: #111827" x="395.089206" y="148.782886" transform="rotate(-0 395.089206 148.782886)">78.9%</text>
   </g>
   <g id="text_28">
    <g id="patch_9">
     <path d="M 381.348633 180.638505
L 409.939102 180.638505
Q 411.289102 180.638505 411.289102 179.288505
L 411.289102 170.288505
Q 411.289102 168.938505 409.939102 168.938505
L 381.348633 168.938505
Q 379.998633 168.938505 379.998633 170.288505
L 379.998633 179.288505
Q 379.998633 180.638505 381.348633 180.638505
z
" style="fill: #ffffff; opacity: 0.85"/>
    </g>
    <text style="font-size: 9px; font-family: 'DejaVu Sans'; text-anchor: end; fill: #111827" x="409.939102" y="177.126396" transform="rotate(-0 409.939102 177.126396)">81.1%</text>
   </g>
   <g id="text_29">
    <g id="patch_10">
     <path d="M 388.773581 208.982016
L 417.36405 208.982016
Q 418.71405 208.982016 418.71405 207.632016
L 418.71405 198.632016
Q 418.71405 197.282016 417.36405 197.282016
L 388.773581 197.282016
Q 387.423581 197.282016 387.423581 198.632016
L 387.423581 207.632016
Q 387.423581 208.982016 388.773581 208.982016
z
" style="fill: #ffffff; opacity: 0.85"/>
    </g>
    <text style="font-size: 9px; font-family: 'DejaVu Sans'; text-anchor: end; fill: #111827" x="417.36405" y="205.469906" transform="rotate(-0 417.36405 205.469906)">82.1%</text>
   </g>
   <g id="text_30">
    <g id="patch_11">
     <path d="M 396.198529 237.325526
L 424.788998 237.325526
Q 426.138998 237.325526 426.138998 235.975526
L 426.138998 226.975526
Q 426.138998 225.625526 424.788998 225.625526
L 396.198529 225.625526
Q 394.848529 225.625526 394.848529 226.975526
L 394.848529 235.975526
Q 394.848529 237.325526 396.198529 237.325526
z
" style="fill: #ffffff; opacity: 0.85"/>
    </g>
    <text style="font-size: 9px; font-family: 'DejaVu Sans'; text-anchor: end; fill: #111827" x="424.788998" y="233.813416" transform="rotate(-0 424.788998 233.813416)">83.2%</text>
   </g>
   <g id="text_31">
    <g id="patch_12">
     <path d="M 403.623477 265.669036
L 432.213946 265.669036
Q 433.563946 265.669036 433.563946 264.319036
L 433.563946 255.319036
Q 433.563946 253.969036 432.213946 253.969036
L 403.623477 253.969036
Q 402.273477 253.969036 402.273477 255.319036
L 402.273477 264.319036
Q 402.273477 265.669036 403.623477 265.669036
z
" style="fill: #ffffff; opacity: 0.85"/>
    </g>
    <text style="font-size: 9px; font-family: 'DejaVu Sans'; text-anchor: end; fill: #111827" x="432.213946" y="262.156927" transform="rotate(-0 432.213946 262.156927)">84.2%</text>
   </g>
   <g id="text_32">
    <g id="patch_13">
     <path d="M 411.048425 294.012546
L 439.638894 294.012546
Q 440.988894 294.012546 440.988894 292.662546
L 440.988894 283.662546
Q 440.988894 282.312546 439.638894 282.312546
L 411.048425 282.312546
Q 409.698425 282.312546 409.698425 283.662546
L 409.698425 292.662546
Q 409.698425 294.012546 411.048425 294.012546
z
" style="fill: #ffffff; opacity: 0.85"/>
    </g>
    <text style="font-size: 9px; font-family: 'DejaVu Sans'; text-anchor: end; fill: #111827" x="439.638894" y="290.500437" transform="rotate(-0 439.638894 290.500437)">85.3%</text>
   </g>
   <g id="text_33">
    <g id="patch_14">
     <path d="M 411.048425 322.356056
L 439.638894 322.356056
Q 440.988894 322.356056 440.988894 321.006056
L 440.988894 312.006056
Q 440.988894 310.656056 439.638894 310.656056
L 411.048425 310.656056
Q 409.698425 310.656056 409.698425 312.006056
L 409.698425 321.006056
Q 409.698425 322.356056 411.048425 322.356056
z
" style="fill: #ffffff; opacity: 0.85"/>
    </g>
    <text style="font-size: 9px; font-family: 'DejaVu Sans'; text-anchor: end; fill: #111827" x="439.638894" y="318.843947" transform="rotate(-0 439.638894 318.843947)">85.3%</text>
   </g>
   <g id="text_34">
    <g id="patch_15">
     <path d="M 418.473374 350.699566
L 447.063842 350.699566
Q 448.413842 350.699566 448.413842 349.349566
L 448.413842 340.349566
Q 448.413842 338.999566 447.063842 338.999566
L 418.473374 338.999566
Q 417.123374 338.999566 417.123374 340.349566
L 417.123374 349.349566
Q 417.123374 350.699566 418.473374 350.699566
z
" style="fill: #ffffff; opacity: 0.85"/>
    </g>
    <text style="font-size: 9px; font-family: 'DejaVu Sans'; text-anchor: end; fill: #111827" x="447.063842" y="347.187457" transform="rotate(-0 447.063842 347.187457)">86.3%</text>
   </g>
   <g id="text_35">
    <g id="patch_16">
     <path d="M 471.417672 379.043077
L 500.008141 379.043077
Q 501.358141 379.043077 501.358141 377.693077
L 501.358141 368.693077
Q 501.358141 367.343077 500.008141 367.343077
L 471.417672 367.343077
Q 470.067672 367.343077 470.067672 368.693077
L 470.067672 377.693077
Q 470.067672 379.043077 471.417672 379.043077
z
" style="fill: #ffffff; opacity: 0.85"/>
    </g>
    <text style="font-size: 9px; font-family: 'DejaVu Sans'; text-anchor: start; fill: #111827" x="471.417672" y="375.530967" transform="rotate(-0 471.417672 375.530967)">87.4%</text>
   </g>
   <g id="text_36">
    <g id="patch_17">
     <path d="M 478.84262 407.386587
L 507.433089 407.386587
Q 508.783089 407.386587 508.783089 406.036587
L 508.783089 397.036587
Q 508.783089 395.686587 507.433089 395.686587
L 478.84262 395.686587
Q 477.49262 395.686587 477.49262 397.036587
L 477.49262 406.036587
Q 477.49262 407.386587 478.84262 407.386587
z
" style="fill: #ffffff; opacity: 0.85"/>
    </g>
    <text style="font-size: 9px; font-family: 'DejaVu Sans'; text-anchor: start; fill: #111827" x="478.84262" y="403.874477" transform="rotate(-0 478.84262 403.874477)">88.4%</text>
   </g>
   <g id="text_37">
    <g id="patch_18">
     <path d="M 493.692516 435.730097
L 522.282985 435.730097
Q 523.632985 435.730097 523.632985 434.380097
L 523.632985 425.380097
Q 523.632985 424.030097 522.282985 424.030097
L 493.692516 424.030097
Q 492.342516 424.030097 492.342516 425.380097
L 492.342516 434.380097
Q 492.342516 435.730097 493.692516 435.730097
z
" style="fill: #ffffff; opacity: 0.85"/>
    </g>
    <text style="font-size: 9px; font-family: 'DejaVu Sans'; text-anchor: start; fill: #111827" x="493.692516" y="432.217988" transform="rotate(-0 493.692516 432.217988)">90.5%</text>
   </g>
   <g id="text_38">
    <g id="patch_19">
     <path d="M 501.117464 464.073607
L 529.707933 464.073607
Q 531.057933 464.073607 531.057933 462.723607
L 531.057933 453.723607
Q 531.057933 452.373607 529.707933 452.373607
L 501.117464 452.373607
Q 499.767464 452.373607 499.767464 453.723607
L 499.767464 462.723607
Q 499.767464 464.073607 501.117464 464.073607
z
" style="fill: #ffffff; opacity: 0.85"/>
    </g>
    <text style="font-size: 9px; font-family: 'DejaVu Sans'; text-anchor: start; fill: #111827" x="501.117464" y="460.561498" transform="rotate(-0 501.117464 460.561498)">91.6%</text>
   </g>
   <g id="text_39">
    <g id="patch_20">
     <path d="M 501.117464 492.417117
L 529.707933 492.417117
Q 531.057933 492.417117 531.057933 491.067117
L 531.057933 482.067117
Q 531.057933 480.717117 529.707933 480.717117
L 501.117464 480.717117
Q 499.767464 480.717117 499.767464 482.067117
L 499.767464 491.067117
Q 499.767464 492.417117 501.117464 492.417117
z
" style="fill: #ffffff; opacity: 0.85"/>
    </g>
    <text style="font-size: 9px; font-family: 'DejaVu Sans'; text-anchor: start; fill: #111827" x="501.117464" y="488.905008" transform="rotate(-0 501.117464 488.905008)">91.6%</text>
   </g>
   <g id="text_40">
    <text style="font-size: 11px; font-family: 'DejaVu Sans'" transform="translate(131.058053 12.459595)">Coarse one-parameter sensitivity: stable vertical gravity-code outcomes</text>
    <text style="font-size: 11px; font-family: 'DejaVu Sans'" transform="translate(131.058053 25.662603)">Baseline: 87.4% stable; whiskers are paired seed-bootstrap intervals</text>
   </g>
  </g>
 </g>
 <defs>
  <clipPath id="p517741fdea">
   <rect x="131.058053" y="37.662603" width="470.741707" height="472.656375"/>
  </clipPath>
 </defs>
</svg>
